<svg id="logo" xmlns="http://www.w3.org/2000/svg" xmlns:xlink="http://www.w3.org/1999/xlink" viewBox="0 0 238 58"><style>.st0{fill:#fff}.st3{fill:#eb2227}</style><path class="st0" d="M235.7 34.1c-1.3 0-2.3-1.1-2.3-2.3 0-1.3 1.1-2.3 2.3-2.3 1.3 0 2.3 1 2.3 2.3 0 1.3-1.1 2.3-2.3 2.3zm0-4.2c-1-.1-1.9.7-2 1.8-.1 1 .7 1.9 1.8 2 1 .1 1.9-.7 2-1.8v-.1c0-1-.8-1.9-1.8-1.9zm1 3.2h-.5l-.7-1.1h-.3v1.1h-.5v-2.6h1c.6 0 1 .2 1 .8 0 .4-.3.7-.6.7h-.1l.7 1.1zm-.5-1.9c0-.3-.3-.4-.5-.4h-.4v.8h.4c.3 0 .5-.1.5-.4zm-10.3 4.5l-.9 21.9h-1.6l-21.3-22.8h-.1c0 5.8.1 11.6.3 17.4.1 3.1.9 3.9 3.4 3.9h1.1v1.1c-1.7 0-3.8-.1-5.8-.1-1.9 0-3.8 0-5.8.1-2-.1-4.4-.1-7.1-.1-2.8 0-5.3 0-7.2.1v-1.1h1.3c1.7 0 2.7-.4 2.7-1.2-.1-.7-.4-1.3-.7-1.9l-3.8-6.7-.1-.2c-1.8 1.2-3.9 1.7-6 1.6-1.9-.2-3.7-.7-5.3-1.6-.2-.1-.3-.2-.5-.2l-.2.5-2.8 5.9c-.5.8-.8 1.8-.9 2.7 0 1.3 3.8 1.2 3.8 1.2l-.5 1.1c-1.8-.1-10.3-.1-11.6 0v-1.1h.6c2.9 0 4-.9 5.6-4l3.8-7.1c-1.3-.4-2.7-.4-4.1-.1-1.5.5-2.9 1.4-3.9 2.6-.1.2-.2.1-.1-.1 1.7-4 5.1-4.8 7.8-4.9.5 0 1 0 1.6.1l6.9-12.9h1L189 52.7c1.3 2.2 2.9 3.6 5.3 3.6h1.9c2.8 0 3.3-.8 3.4-4.7.2-4.9.3-12.1.3-16.4 0-2.7-1.2-3.3-3.8-3.3h-1.5v-1.1c1.4 0 3 .1 4.6.1 1.5 0 2.8 0 4.1-.1l20 21.6h.1l-.3-15.3c-.1-4.3-.9-5.2-3.7-5.2h-.6v-1.1c1.6 0 3.7.1 5.7.1 1.9 0 3.8 0 5.7-.1v1.1h-.8c-1.8-.2-3.3.2-3.5 3.8zm-46.4 9.2l-5.9-10.2-4 8.4c.6.2 1.3.5 1.9.8 3.5 1.7 5.9 2.5 7.7 2.1.2-.1.5-.2.7-.3l-.4-.8zm-49.2 12.3v-1.1h.9c2.4 0 3.5-.6 3.5-3.1V34.8c0-2.4-1-3.1-3.5-3.1h-.9v-1.1c1.8 0 4.4.1 6.7.1s4.5 0 7-.1v1.1h-1.2c-2.4 0-3.5.6-3.5 3.1v17.4c0 2.6.7 3.4 5.7 3.6 0 0 7.4.2 8.3-.1s2.8-4 2.8-4l.7.1-2.4 5.4c-1.7-.2-22.2-.1-24.1 0zm-16.4-14.9c-2 0-3.9-.1-5.8-.3v9.1c0 4.3 1.1 4.8 3.6 4.8h1.8v1.3c-2.8 0-5.4-.2-8.2-.2-2.8 0-4.9.1-7.1.2v-1.3h1.1c2.9 0 4.1-.8 4.1-3.7v-22c0-2.9-1.3-3.7-4.1-3.7h-1.1v-1.3c2.2 0 4.3.2 7.1.2 3.4 0 6.9-.2 10.3-.2 10.2 0 13.3 4.9 13.3 8.5 0 4-3.4 8.6-15 8.6zm-1.8-15.8c-1.5 0-2.9.1-4 .2v12.8c2.1.7 4.3 1.1 6.5 1.1 6.3 0 8.3-3.3 8.3-6.1 0-5.2-4.1-8-10.8-8zM76.3 57.7c-8.2 0-14.2-6.1-14.2-13.5 0-7.8 6.3-14.1 14.1-14.1h.2c7.6 0 14.2 6 14.2 13.8-.1 7.7-6.4 13.9-14.1 13.8h-.2zm0-25.9c-5.2 0-10.1 3.2-10.1 11.7 0 5.9 4 12.5 10.4 12.5 6.9 0 10.1-5 10.1-11.7-.1-6-3.9-12.5-10.4-12.5zm-13 25.5v.5s-4.6 1.4-9.5-2.9c-.3-.3-.7-.7-1-1.1l-6.1-7.2c-1.2-1.4-1.9-1.5-5.9-1.5v7.1c0 3.6.9 4 3 4h1.5v1.1c-2.3 0-4.5-.1-6.8-.1s-4.9 0-6.7.1v-1.1h.9c2.4 0 3.5-.6 3.5-3.1V34.9c0-2.4-1.1-3.1-3.5-3.1h-.9v-1.1c1.8 0 4.4.1 6.7.1 3.5 0 6-.1 8.3-.1 9.3 0 10.9 5.2 10.9 6.9 0 4.9-4.8 6.4-7.4 7 0 0 9.5 12.7 13 12.7zm-10.4-19c0-1.6-1.6-6.2-8.9-6.2-1.3 0-2.3.1-3.3.1v11.2c1.2.2 2.4.3 3.6.3 4.7 0 8.6-1.5 8.6-5.4zm-37.2 4c-2 0-3.9-.1-5.8-.3v9.1c0 4.3 1.1 4.8 3.6 4.8h1.8v1.3c-2.8 0-5.4-.2-8.2-.2-2.8 0-4.9.1-7.1.2v-1.3h1.1c2.9 0 4.2-.8 4.2-3.7v-22c0-2.9-1.3-3.7-4.2-3.7H0v-1.3c2.2 0 4.3.2 7.1.2 3.4 0 6.9-.2 10.3-.2 10.2 0 13.3 4.9 13.3 8.5 0 4-3.4 8.6-15 8.6zm-1.9-15.8c-1.5 0-2.9.1-4 .2v12.8c2.1.7 4.3 1.1 6.5 1.1 6.3 0 8.3-3.3 8.3-6.1 0-5.2-4-8-10.8-8z"/><g id="Layer_2_1_"><g id="Layer_1-2"><g id="Layer_2-2"><g id="Layer_1-2-2"><path class="st0" d="M66 1h94.8v16.7H66z"/><path fill="#231f20" d="M83 1.4h77.4v16H83z"/><defs><path id="SVGID_1_" d="M66 1h95v16.7H66z"/></defs><clipPath id="SVGID_2_"><use xlink:href="#SVGID_1_" overflow="visible"/></clipPath><g clip-path="url(#SVGID_2_)"><path class="st0" d="M89.5 5.1c.3-.1.6-.1.9-.1.4 0 .7.1 1.1.3.2.1.5.4.6.7.2.4.3.8.3 1.2 0 .6-.2 1.1-.5 1.5-.3.4-.8.6-1.2.6h-.5c-.2 0-.4 0-.6-.1l-.1-4.1zm2.9-.7c-.7-.2-1.5-.3-2.2-.3h-4v.6h.5c.3 0 .6.1.8.3.1 0 .2.2.2 1v6.7c0 .4 0 .7-.1 1-.2.3-.5.4-.8.4h-.5v.6H91v-.6h-.5c-.3 0-.6-.1-.8-.3-.1-.1-.2-.3-.2-1.1V9.9c.3.1.5.1.8.1.3 0 .6.1.8.1.9 0 1.8-.3 2.5-.9.6-.6.9-1.4.9-2.2 0-.6-.2-1.3-.6-1.7-.4-.4-.9-.8-1.5-.9M104 4v.6h.5c.3 0 .6.1.8.3.1.1.2.3.2 1.1v4.2c.1.8 0 1.6-.3 2.3-.2.5-.6.8-1 1.1-.5.3-1.1.4-1.7.4-.4 0-.9-.1-1.3-.3-.3-.1-.6-.4-.8-.7-.2-.4-.3-.7-.4-1.2-.1-.5-.1-.9-.1-1.4V6c-.1-.4 0-.7.1-1.1.2-.2.5-.4.8-.3h.5V4h-4.7v.6h.5c.3 0 .5.1.7.2.2.4.3.8.2 1.2v4c0 .9 0 1.8.3 2.6.2.7.7 1.3 1.3 1.7.8.5 1.7.7 2.7.6.9 0 1.8-.2 2.6-.6.6-.4 1-.9 1.2-1.5.2-.8.3-1.6.3-2.5V6.1c0-.3 0-.7.1-1 .2-.3.5-.5.8-.5h.5V4H104zm9.9 1.1c.3-.1.7-.1 1-.1.6 0 1.1.2 1.5.6.4.4.6.9.6 1.5s-.2 1.2-.7 1.5c-.6.5-1.4.7-2.1.6h-.3V5.1zm5.9 8.7c-.5-.4-.9-.8-1.2-1.3l-2-2.8c.7-.2 1.3-.5 1.7-1 .4-.5.7-1.1.7-1.7 0-.6-.2-1.2-.6-1.6-.4-.4-.8-.8-1.4-1-.8-.2-1.7-.3-2.5-.3h-3.9v.6h.5c.3 0 .6.1.8.3.1.1.2.3.2 1.1v6.7c0 .4 0 .7-.1 1-.2.3-.5.4-.8.4h-.5v.6h4.7v-.6h-.5c-.3 0-.6-.1-.8-.3-.1-.1-.2-.3-.2-1.1V9.9h.9l3.5 4.9h3v-.6h-.1c-.5 0-1-.2-1.4-.4m4.2-9.7v.6h.5c.2 0 .4.1.6.2.1.1.2.1.2.3.1.3.1.7.1 1v6.7c0 .8-.1 1-.2 1.1-.2.2-.5.3-.8.3h-.5v.6h4.7v-.6h-.5c-.2 0-.4-.1-.6-.2-.1-.1-.2-.1-.3-.3-.1-.3-.1-.7-.1-1V6c0-.8.1-1 .2-1.1.2-.2.5-.4.8-.3h.5v-.5H124zm19.9 0H140v.6h.5c.3 0 .6.1.8.3.1.1.2.3.2 1.1v5.6l-6.2-7.5h-3.1v.6h.1c.2 0 .4 0 .6.1l.6.3.6.6V13c0 .4 0 .7-.1 1-.2.3-.5.4-.9.3h-.5v.6h3.9v-.6h-.5c-.3 0-.6-.1-.8-.3-.1-.1-.2-.3-.2-1.1v-6l6.7 8.2h.5V6c0-.7.1-1 .1-1 .2-.2.5-.4.8-.3h.5l.3-.6zm7.2 2.6l1.5 3.7h-3.1l1.6-3.7zm6 7.5c-.3 0-.6-.1-.9-.3-.3-.4-.6-.8-.8-1.3l-3.6-8.7h-.5l-3.8 8.6c-.2.5-.5 1-.9 1.4-.2.2-.5.3-.8.3h-.1v.6h3.6v-.6h-.1c-.3 0-.6-.1-.9-.2-.1-.1-.2-.2-.2-.3 0-.3.1-.6.3-.9l.7-1.5h3.9l.6 1.4c.2.3.3.7.3 1 0 .1-.1.2-.2.3-.2.1-.5.2-.8.2h-.1v.6h4.4v-.6h-.1z"/><path class="st3" d="M66.5 1.4h16v16h-16z"/><path class="st0" d="M67 2h14.8v14.8H67z"/><path class="st3" d="M67.6 11.7h4.6v4.6h-4.6zm9.1 0h4.6v4.6h-4.6zm-4.5-4.6h4.6v4.6h-4.6zm-4.6-4.6h4.6v4.6h-4.6zm9.1 0h4.6v4.6h-4.6z"/><path class="st0" d="M162.3 2.2h.1c.1 0 .2 0 .2-.1s-.1-.1-.2-.1h-.1v.2zm0 .5h-.2v-1h.4c.1 0 .3 0 .4.1.1.1.1.1.1.2s-.1.2-.2.2c.1 0 .1.1.2.2 0 .1 0 .2.1.2h-.2c0-.1-.1-.2-.1-.2 0-.1-.1-.1-.2-.1h-.1l-.2.4zm-.5-.4c-.1.4.2.8.6.8.4.1.8-.2.8-.6v-.2c.1-.4-.2-.8-.6-.8-.4-.1-.8.2-.8.6v.2m1.7 0c-.1.5-.5.9-1.1.9-.5 0-.8-.4-.9-.9.1-.5.5-.9 1.1-.9.5 0 .9.4.9.9"/></g></g></g></g></g></svg>