<svg xmlns="http://www.w3.org/2000/svg" width="95.94" height="96"><path data-name="Rounded Rectangle 5 copy" d="M47.95 2A46 46 0 1 1 1.99 48 45.984 45.984 0 0 1 47.95 2z" stroke="#d8d8d8" stroke-width="4" fill="none" fill-rule="evenodd"/><path data-name="Ellipse 10 copy" d="M19.06 63.824l9.67-.608c8.31-1.1 6.93-7.711 6.93-7.711h.01c0 .139.01.263.01.386.08-14.285 7.41-17.672 10.42-18.464.57-.119 1.18-.232 1.85-.319l2.97-7.618.58-1.486a11.36 11.36 0 0 0 1.41-1.058 24.927 24.927 0 0 0 5.93-6.939 5.949 5.949 0 0 1 .5 1.138 5.194 5.194 0 0 1 .23 2.466 2.324 2.324 0 0 1-.13.515s3.91 1.174 4.27 2.55c.04.158.09.321.14.468a3.812 3.812 0 0 0 1.41 2.182 2.066 2.066 0 0 1 .68 1.009 9.874 9.874 0 0 1-2.19 3.251 2.006 2.006 0 0 0-1.26.421 2.071 2.071 0 0 0-.52.484v.009a2.585 2.585 0 0 0-.48 1.592 9.363 9.363 0 0 0 2.01 5.134 20.053 20.053 0 0 0-4.28 12.386 17.723 17.723 0 0 0 .27 4.174 22.848 22.848 0 0 0 1.12 4.65 2.766 2.766 0 0 0 1.47 1.5h-.01a6.849 6.849 0 0 1 .83.417.913.913 0 0 1-.53 1.661H59.5a1.919 1.919 0 0 1-1.67-1.119l-3.19-7.761s-.87.9-1.3 1.409.21.912.08 2.1-1.88 2.751-1.88 2.751a14.945 14.945 0 0 1 1.81.746.969.969 0 0 1-.35 1.876H40.32a3.671 3.671 0 0 1-2.94-1.393c-.03-.046-.06-.087-.09-.131a13.337 13.337 0 0 1-3.79 1.171 31.047 31.047 0 0 1-3.17.329c-.56.024-.9.024-.9.024l-.12-.024h-8.75c-.6 0-2.6-.484-2.6-1.082a1.1 1.1 0 0 1 1.1-1.081" fill="#d8d8d8" fill-rule="evenodd"/></svg>