<?xml version="1.0" encoding="UTF-8"?>
<svg width="22px" height="22px" viewBox="0 0 22 22" version="1.1" xmlns="http://www.w3.org/2000/svg" xmlns:xlink="http://www.w3.org/1999/xlink">
    <!-- Generator: Sketch 46.2 (44496) - http://www.bohemiancoding.com/sketch -->
    <title>icon / ok</title>
    <desc>Created with Sketch.</desc>
    <defs></defs>
    <g id="Symbols" stroke="none" stroke-width="1" fill="none" fill-rule="evenodd">
        <g id="icon-/-ok" fill="#ffffff">
            <path d="M19.26748,6.4587406 C19.267671,6.44992783 19.267767,6.44109165 19.267767,6.43223305 L19.267767,6.43223305 C19.267767,5.76949135 18.7305087,5.23223305 18.067767,5.23223305 L18.067767,5.23223305 L3.46776695,5.23223305 L3.46776695,5.23223305 C2.80502525,5.23223305 2.26776695,5.76949135 2.26776695,6.43223305 L2.26776695,6.43223305 L2.26776695,6.43223305 C2.26776695,7.09497475 2.80502525,7.63223305 3.46776695,7.63223305 L16.7605646,7.63223305 L16.7605646,15.9786319 C16.7605646,16.6709767 17.3218209,17.232233 18.0141658,17.232233 L18.0141658,17.232233 C18.7065106,17.232233 19.267767,16.6709767 19.267767,15.9786319 L19.267767,15.9786319 L19.267767,6.48583423 C19.267767,6.47678028 19.267671,6.46774875 19.26748,6.4587406 Z" id="Combined-Shape" transform="translate(10.767767, 11.232233) rotate(135.000000) translate(-10.767767, -11.232233) "></path>
        </g>
    </g>
</svg>