<?xml version="1.0" encoding="UTF-8" standalone="no"?>
<svg width="22px" height="13px" viewBox="0 0 22 13" version="1.1" xmlns="http://www.w3.org/2000/svg" xmlns:xlink="http://www.w3.org/1999/xlink">
    <!-- Generator: Sketch 47.1 (45422) - http://www.bohemiancoding.com/sketch -->
    <title>Group 5 Copy 8</title>
    <desc>Created with Sketch.</desc>
    <defs></defs>
    <g id="Page-1" stroke="none" stroke-width="1" fill="none" fill-rule="evenodd">
        <g id="question-1200-close" transform="translate(-1047.000000, -356.000000)" fill="#B0B0B0">
            <g id="вопрос-ответ" transform="translate(105.000000, 227.000000)">
                <g id="question" transform="translate(3.000000, 103.000000)">
                    <g id="1">
                        <g id="arrow-down-/-grey" transform="translate(937.000000, 20.000000)">
                            <path d="M20.6469889,2.44661498 C20.6470355,2.44174235 20.6470588,2.43686416 20.6470588,2.43198052 L20.6470588,2.43198052 C20.6470588,1.60355339 19.9754859,0.931980515 19.1470588,0.931980515 L6.85294118,0.931980515 L6.85294118,0.931980515 C6.02451405,0.931980515 5.35294118,1.60355339 5.35294118,2.43198052 L5.35294118,2.43198052 L5.35294118,2.43198052 C5.35294118,3.26040764 6.02451405,3.93198052 6.85294118,3.93198052 L17.5882353,3.93198052 L17.5882353,14.4025688 C17.5882353,15.2472395 18.2729763,15.9319805 19.1176471,15.9319805 L19.1176471,15.9319805 C19.9623179,15.9319805 20.6470588,15.2472395 20.6470588,14.4025688 L20.6470588,14.4025688 L20.6470588,2.46139228 C20.6470588,2.45646103 20.6470355,2.45153523 20.6469889,2.44661498 Z" id="Combined-Shape" transform="translate(13.000000, 8.431981) rotate(135.000000) translate(-13.000000, -8.431981) "></path>
                        </g>
                    </g>
                </g>
            </g>
        </g>
    </g>
</svg>