<svg xmlns="http://www.w3.org/2000/svg" width="23" height="56" viewBox="0 0 23 56">
    <g fill="#FFF" fill-rule="nonzero">
        <path d="M0 22.14v11.72c0 6.447 5.175 11.721 11.5 11.721S23 40.307 23 33.861V22.14c0-6.447-5.175-11.721-11.5-11.721S0 15.693 0 22.139zm11.5-9.117c4.92 0 8.944 4.103 8.944 9.117v11.72c0 5.014-4.025 9.117-8.944 9.117-4.92 0-8.944-4.103-8.944-9.117V22.14c0-5.014 4.025-9.117 8.944-9.117z"/>
        <path d="M11.5 24.093c.703 0 1.278-.586 1.278-1.302v-3.907c0-.717-.575-1.303-1.278-1.303-.703 0-1.278.586-1.278 1.303v3.907c0 .716.575 1.302 1.278 1.302zM10.606 55.61c.255.26.575.39.894.39.32 0 .639-.13.894-.39l3.195-3.257a1.276 1.276 0 0 0 0-1.823c-.511-.52-1.278-.52-1.789 0l-2.3 2.344-2.3-2.344c-.511-.52-1.278-.52-1.789 0a1.276 1.276 0 0 0 0 1.823l3.195 3.256zM10.606.39L7.41 3.648a1.276 1.276 0 0 0 0 1.823c.256.26.575.39.895.39.319 0 .638-.13.894-.39l2.3-2.344 2.3 2.344c.256.26.575.39.894.39.32 0 .64-.13.895-.39a1.276 1.276 0 0 0 0-1.823L12.394.39c-.51-.521-1.277-.521-1.788 0z"/>
    </g>
</svg>
