<svg xmlns="http://www.w3.org/2000/svg" xmlns:xlink="http://www.w3.org/1999/xlink"><symbol viewBox="0 0 22 13" id="icon-arrow" xmlns="http://www.w3.org/2000/svg"><path d="M9.825 12.072l.01.01a1.5 1.5 0 0 0 2.122 0l8.693-8.693a1.5 1.5 0 1 0-2.121-2.121l-7.591 7.59-7.404-7.403A1.53 1.53 0 1 0 1.37 3.618l8.444 8.443.01.01z" fill-rule="evenodd"/></symbol><symbol viewBox="0 0 563.43 563.43" id="icon-profile" xmlns="http://www.w3.org/2000/svg"><path d="M280.79 314.559c83.266 0 150.803-67.538 150.803-150.803S364.055 13.415 280.79 13.415 129.987 80.953 129.987 163.756s67.537 150.803 150.803 150.803zm0-261.824c61.061 0 111.021 49.959 111.021 111.021s-49.96 111.02-111.021 111.02-111.021-49.959-111.021-111.021 49.959-111.02 111.021-111.02zM19.891 550.015h523.648c11.102 0 19.891-8.789 19.891-19.891 0-104.082-84.653-189.198-189.198-189.198H189.198C85.116 340.926 0 425.579 0 530.124c0 11.102 8.789 19.891 19.891 19.891zm169.307-169.307h185.034c75.864 0 138.313 56.436 148.028 129.524H41.17c9.714-72.625 72.164-129.524 148.028-129.524z"/></symbol><symbol viewBox="0 0 23 56" id="icon-scroll" xmlns="http://www.w3.org/2000/svg"><path d="M0 22.14v11.72c0 6.447 5.175 11.721 11.5 11.721S23 40.307 23 33.861V22.14c0-6.447-5.175-11.721-11.5-11.721S0 15.693 0 22.139zm11.5-9.117c4.92 0 8.944 4.103 8.944 9.117v11.72c0 5.014-4.025 9.117-8.944 9.117-4.92 0-8.944-4.103-8.944-9.117V22.14c0-5.014 4.025-9.117 8.944-9.117z"/><path d="M11.5 24.093c.703 0 1.278-.586 1.278-1.302v-3.907c0-.717-.575-1.303-1.278-1.303-.703 0-1.278.586-1.278 1.303v3.907c0 .716.575 1.302 1.278 1.302zm-.894 31.517c.255.26.575.39.894.39.32 0 .639-.13.894-.39l3.195-3.257a1.276 1.276 0 0 0 0-1.823c-.511-.52-1.278-.52-1.789 0l-2.3 2.344-2.3-2.344c-.511-.52-1.278-.52-1.789 0a1.276 1.276 0 0 0 0 1.823l3.195 3.256zm0-55.22L7.41 3.648a1.276 1.276 0 0 0 0 1.823c.256.26.575.39.895.39.319 0 .638-.13.894-.39l2.3-2.344 2.3 2.344c.256.26.575.39.894.39.32 0 .64-.13.895-.39a1.276 1.276 0 0 0 0-1.823L12.394.39c-.51-.521-1.277-.521-1.788 0z"/></symbol></svg>