<?xml version="1.0" encoding="utf-8"?>
<!-- Generator: Adobe Illustrator 22.0.1, SVG Export Plug-In . SVG Version: 6.00 Build 0)  -->
<svg version="1.1" id="logo" xmlns="http://www.w3.org/2000/svg" xmlns:xlink="http://www.w3.org/1999/xlink" x="0px" y="0px"
	 viewBox="0 0 238 58" style="enable-background:new 0 0 238 58;" xml:space="preserve">
<style type="text/css">
	.st0{fill:#FFFFFF;}
	.st1{fill:#231F20;}
	.st2{clip-path:url(#SVGID_2_);}
	.st3{fill:#EB2227;}
</style>
<path class="st0" d="M235.7,34.1c-1.3,0-2.3-1.1-2.3-2.3c0-1.3,1.1-2.3,2.3-2.3c1.3,0,2.3,1,2.3,2.3C238,33.1,236.9,34.1,235.7,34.1
	z M235.7,29.9c-1-0.1-1.9,0.7-2,1.8c-0.1,1,0.7,1.9,1.8,2c1,0.1,1.9-0.7,2-1.8c0,0,0-0.1,0-0.1C237.5,30.8,236.7,29.9,235.7,29.9
	C235.7,29.9,235.7,29.9,235.7,29.9L235.7,29.9z M236.7,33.1h-0.5l-0.7-1.1h-0.3v1.1h-0.5v-2.6h1c0.6,0,1,0.2,1,0.8
	c0,0.4-0.3,0.7-0.6,0.7c0,0-0.1,0-0.1,0L236.7,33.1z M236.2,31.2c0-0.3-0.3-0.4-0.5-0.4h-0.4v0.8h0.4
	C236,31.6,236.2,31.5,236.2,31.2L236.2,31.2z M225.9,35.7L225,57.6h-1.6l-21.3-22.8H202c0,5.8,0.1,11.6,0.3,17.4
	c0.1,3.1,0.9,3.9,3.4,3.9h1.1v1.1c-1.7,0-3.8-0.1-5.8-0.1c-1.9,0-3.8,0-5.8,0.1c-2-0.1-4.4-0.1-7.1-0.1c-2.8,0-5.3,0-7.2,0.1v-1.1
	h1.3c1.7,0,2.7-0.4,2.7-1.2c-0.1-0.7-0.4-1.3-0.7-1.9l-3.8-6.7l-0.1-0.2c-1.8,1.2-3.9,1.7-6,1.6c-1.9-0.2-3.7-0.7-5.3-1.6
	c-0.2-0.1-0.3-0.2-0.5-0.2l-0.2,0.5l-2.8,5.9c-0.5,0.8-0.8,1.8-0.9,2.7c0,1.3,3.8,1.2,3.8,1.2l-0.5,1.1c-1.8-0.1-10.3-0.1-11.6,0
	v-1.1h0.6c2.9,0,4-0.9,5.6-4l3.8-7.1c-1.3-0.4-2.7-0.4-4.1-0.1c-1.5,0.5-2.9,1.4-3.9,2.6c-0.1,0.2-0.2,0.1-0.1-0.1
	c1.7-4,5.1-4.8,7.8-4.9c0.5,0,1,0,1.6,0.1l6.9-12.9h1l13.5,22.9c1.3,2.2,2.9,3.6,5.3,3.6h1.9c2.8,0,3.3-0.8,3.4-4.7
	c0.2-4.9,0.3-12.1,0.3-16.4c0-2.7-1.2-3.3-3.8-3.3h-1.5v-1.1c1.4,0,3,0.1,4.6,0.1c1.5,0,2.8,0,4.1-0.1l20,21.6h0.1l-0.3-15.3
	c-0.1-4.3-0.9-5.2-3.7-5.2h-0.6v-1.1c1.6,0,3.7,0.1,5.7,0.1c1.9,0,3.8,0,5.7-0.1v1.1h-0.8C227.6,31.7,226.1,32.1,225.9,35.7
	L225.9,35.7z M179.5,44.9l-5.9-10.2l-4,8.4c0.6,0.2,1.3,0.5,1.9,0.8c3.5,1.7,5.9,2.5,7.7,2.1c0.2-0.1,0.5-0.2,0.7-0.3L179.5,44.9z
	 M130.3,57.2v-1.1h0.9c2.4,0,3.5-0.6,3.5-3.1V34.8c0-2.4-1-3.1-3.5-3.1h-0.9v-1.1c1.8,0,4.4,0.1,6.7,0.1c2.3,0,4.5,0,7-0.1v1.1h-1.2
	c-2.4,0-3.5,0.6-3.5,3.1v17.4c0,2.6,0.7,3.4,5.7,3.6c0,0,7.4,0.2,8.3-0.1s2.8-4,2.8-4l0.7,0.1l-2.4,5.4
	C152.7,57,132.2,57.1,130.3,57.2L130.3,57.2z M113.9,42.3c-2,0-3.9-0.1-5.8-0.3v9.1c0,4.3,1.1,4.8,3.6,4.8h1.8v1.3
	c-2.8,0-5.4-0.2-8.2-0.2c-2.8,0-4.9,0.1-7.1,0.2v-1.3h1.1c2.9,0,4.1-0.8,4.1-3.7v-22c0-2.9-1.3-3.7-4.1-3.7h-1.1v-1.3
	c2.2,0,4.3,0.2,7.1,0.2c3.4,0,6.9-0.2,10.3-0.2c10.2,0,13.3,4.9,13.3,8.5C128.9,37.7,125.5,42.3,113.9,42.3L113.9,42.3z M112.1,26.5
	c-1.5,0-2.9,0.1-4,0.2v12.8c2.1,0.7,4.3,1.1,6.5,1.1c6.3,0,8.3-3.3,8.3-6.1C122.9,29.3,118.8,26.5,112.1,26.5L112.1,26.5z
	 M76.3,57.7c-8.2,0-14.2-6.1-14.2-13.5c0-7.8,6.3-14.1,14.1-14.1c0.1,0,0.2,0,0.2,0c7.6,0,14.2,6,14.2,13.8
	c-0.1,7.7-6.4,13.9-14.1,13.8C76.5,57.7,76.4,57.7,76.3,57.7L76.3,57.7z M76.3,31.8c-5.2,0-10.1,3.2-10.1,11.7
	c0,5.9,4,12.5,10.4,12.5c6.9,0,10.1-5,10.1-11.7C86.6,38.3,82.8,31.8,76.3,31.8L76.3,31.8z M63.3,57.3l0,0.5c0,0-4.6,1.4-9.5-2.9
	c-0.3-0.3-0.7-0.7-1-1.1l-6.1-7.2c-1.2-1.4-1.9-1.5-5.9-1.5v7.1c0,3.6,0.9,4,3,4h1.5v1.1c-2.3,0-4.5-0.1-6.8-0.1
	c-2.3,0-4.9,0-6.7,0.1v-1.1h0.9c2.4,0,3.5-0.6,3.5-3.1V34.9c0-2.4-1.1-3.1-3.5-3.1h-0.9v-1.1c1.8,0,4.4,0.1,6.7,0.1
	c3.5,0,6-0.1,8.3-0.1c9.3,0,10.9,5.2,10.9,6.9c0,4.9-4.8,6.4-7.4,7C50.3,44.6,59.8,57.3,63.3,57.3L63.3,57.3z M52.9,38.3
	c0-1.6-1.6-6.2-8.9-6.2c-1.3,0-2.3,0.1-3.3,0.1v11.2c1.2,0.2,2.4,0.3,3.6,0.3C49,43.7,52.9,42.2,52.9,38.3z M15.7,42.3
	c-2,0-3.9-0.1-5.8-0.3v9.1c0,4.3,1.1,4.8,3.6,4.8h1.8v1.3c-2.8,0-5.4-0.2-8.2-0.2c-2.8,0-4.9,0.1-7.1,0.2v-1.3h1.1
	c2.9,0,4.2-0.8,4.2-3.7v-22c0-2.9-1.3-3.7-4.2-3.7H0v-1.3c2.2,0,4.3,0.2,7.1,0.2c3.4,0,6.9-0.2,10.3-0.2c10.2,0,13.3,4.9,13.3,8.5
	C30.7,37.7,27.3,42.3,15.7,42.3L15.7,42.3z M13.8,26.5c-1.5,0-2.9,0.1-4,0.2v12.8c2.1,0.7,4.3,1.1,6.5,1.1c6.3,0,8.3-3.3,8.3-6.1
	C24.6,29.3,20.6,26.5,13.8,26.5z"/>
<g id="Layer_2_1_">
	<g id="Layer_1-2">
		<g id="Layer_2-2">
			<g id="Layer_1-2-2">
				<rect x="66" y="1" class="st0" width="94.8" height="16.7"/>
				<rect x="83" y="1.4" class="st1" width="77.4" height="16"/>
				<g>
					<defs>
						<rect id="SVGID_1_" x="66" y="1" width="95" height="16.7"/>
					</defs>
					<clipPath id="SVGID_2_">
						<use xlink:href="#SVGID_1_"  style="overflow:visible;"/>
					</clipPath>
					<g class="st2">
						<path class="st0" d="M89.5,5.1C89.8,5,90.1,5,90.4,5c0.4,0,0.7,0.1,1.1,0.3C91.7,5.4,92,5.7,92.1,6c0.2,0.4,0.3,0.8,0.3,1.2
							c0,0.6-0.2,1.1-0.5,1.5c-0.3,0.4-0.8,0.6-1.2,0.6h-0.5c-0.2,0-0.4,0-0.6-0.1L89.5,5.1z M92.4,4.4c-0.7-0.2-1.5-0.3-2.2-0.3h-4
							v0.6h0.5c0.3,0,0.6,0.1,0.8,0.3C87.6,5,87.7,5.2,87.7,6v6.7c0,0.4,0,0.7-0.1,1c-0.2,0.3-0.5,0.4-0.8,0.4h-0.5v0.6H91v-0.6
							h-0.5c-0.3,0-0.6-0.1-0.8-0.3c-0.1-0.1-0.2-0.3-0.2-1.1V9.9c0.3,0.1,0.5,0.1,0.8,0.1c0.3,0,0.6,0.1,0.8,0.1
							c0.9,0,1.8-0.3,2.5-0.9c0.6-0.6,0.9-1.4,0.9-2.2c0-0.6-0.2-1.3-0.6-1.7C93.5,4.9,93,4.5,92.4,4.4"/>
						<path class="st0" d="M104,4v0.6h0.5c0.3,0,0.6,0.1,0.8,0.3c0.1,0.1,0.2,0.3,0.2,1.1v4.2c0.1,0.8,0,1.6-0.3,2.3
							c-0.2,0.5-0.6,0.8-1,1.1c-0.5,0.3-1.1,0.4-1.7,0.4c-0.4,0-0.9-0.1-1.3-0.3c-0.3-0.1-0.6-0.4-0.8-0.7c-0.2-0.4-0.3-0.7-0.4-1.2
							c-0.1-0.5-0.1-0.9-0.1-1.4V6c-0.1-0.4,0-0.7,0.1-1.1c0.2-0.2,0.5-0.4,0.8-0.3h0.5V4h-4.7v0.6h0.5c0.3,0,0.5,0.1,0.7,0.2
							c0.2,0.4,0.3,0.8,0.2,1.2V10c0,0.9,0,1.8,0.3,2.6c0.2,0.7,0.7,1.3,1.3,1.7c0.8,0.5,1.7,0.7,2.7,0.6c0.9,0,1.8-0.2,2.6-0.6
							c0.6-0.4,1-0.9,1.2-1.5c0.2-0.8,0.3-1.6,0.3-2.5V6.1c0-0.3,0-0.7,0.1-1c0.2-0.3,0.5-0.5,0.8-0.5h0.5V4H104z"/>
						<path class="st0" d="M113.9,5.1c0.3-0.1,0.7-0.1,1-0.1c0.6,0,1.1,0.2,1.5,0.6c0.4,0.4,0.6,0.9,0.6,1.5c0,0.6-0.2,1.2-0.7,1.5
							c-0.6,0.5-1.4,0.7-2.1,0.6h-0.3V5.1z M119.8,13.8c-0.5-0.4-0.9-0.8-1.2-1.3l-2-2.8c0.7-0.2,1.3-0.5,1.7-1
							c0.4-0.5,0.7-1.1,0.7-1.7c0-0.6-0.2-1.2-0.6-1.6c-0.4-0.4-0.8-0.8-1.4-1c-0.8-0.2-1.7-0.3-2.5-0.3h-3.9v0.6h0.5
							c0.3,0,0.6,0.1,0.8,0.3c0.1,0.1,0.2,0.3,0.2,1.1v6.7c0,0.4,0,0.7-0.1,1c-0.2,0.3-0.5,0.4-0.8,0.4h-0.5v0.6h4.7v-0.6h-0.5
							c-0.3,0-0.6-0.1-0.8-0.3c-0.1-0.1-0.2-0.3-0.2-1.1V9.9h0.9l3.5,4.9h3v-0.6h-0.1C120.7,14.2,120.2,14,119.8,13.8"/>
						<path class="st0" d="M124,4.1v0.6h0.5c0.2,0,0.4,0.1,0.6,0.2c0.1,0.1,0.2,0.1,0.2,0.3c0.1,0.3,0.1,0.7,0.1,1v6.7
							c0,0.8-0.1,1-0.2,1.1c-0.2,0.2-0.5,0.3-0.8,0.3h-0.5v0.6h4.7v-0.6h-0.5c-0.2,0-0.4-0.1-0.6-0.2c-0.1-0.1-0.2-0.1-0.3-0.3
							c-0.1-0.3-0.1-0.7-0.1-1V6c0-0.8,0.1-1,0.2-1.1c0.2-0.2,0.5-0.4,0.8-0.3h0.5V4.1H124z"/>
						<path class="st0" d="M143.9,4.1H140v0.6h0.5c0.3,0,0.6,0.1,0.8,0.3c0.1,0.1,0.2,0.3,0.2,1.1v5.6l-6.2-7.5h-3.1v0.6h0.1
							c0.2,0,0.4,0,0.6,0.1c0.2,0.1,0.4,0.2,0.6,0.3c0.2,0.2,0.4,0.4,0.6,0.6v7.2c0,0.4,0,0.7-0.1,1c-0.2,0.3-0.5,0.4-0.9,0.3h-0.5
							v0.6h3.9v-0.6h-0.5c-0.3,0-0.6-0.1-0.8-0.3c-0.1-0.1-0.2-0.3-0.2-1.1v-6l6.7,8.2h0.5V6c0-0.7,0.1-1,0.1-1
							c0.2-0.2,0.5-0.4,0.8-0.3h0.5L143.9,4.1z"/>
						<path class="st0" d="M151.1,6.7l1.5,3.7h-3.1L151.1,6.7z M157.1,14.2c-0.3,0-0.6-0.1-0.9-0.3c-0.3-0.4-0.6-0.8-0.8-1.3
							l-3.6-8.7h-0.5l-3.8,8.6c-0.2,0.5-0.5,1-0.9,1.4c-0.2,0.2-0.5,0.3-0.8,0.3h-0.1v0.6h3.6v-0.6h-0.1c-0.3,0-0.6-0.1-0.9-0.2
							c-0.1-0.1-0.2-0.2-0.2-0.3c0-0.3,0.1-0.6,0.3-0.9l0.7-1.5h3.9l0.6,1.4c0.2,0.3,0.3,0.7,0.3,1c0,0.1-0.1,0.2-0.2,0.3
							c-0.2,0.1-0.5,0.2-0.8,0.2h-0.1v0.6h4.4v-0.6L157.1,14.2z"/>
						<rect x="66.5" y="1.4" class="st3" width="16" height="16"/>
						<rect x="67" y="2" class="st0" width="14.8" height="14.8"/>
						<rect x="67.6" y="11.7" class="st3" width="4.6" height="4.6"/>
						<rect x="76.7" y="11.7" class="st3" width="4.6" height="4.6"/>
						<rect x="72.2" y="7.1" class="st3" width="4.6" height="4.6"/>
						<rect x="67.6" y="2.5" class="st3" width="4.6" height="4.6"/>
						<rect x="76.7" y="2.5" class="st3" width="4.6" height="4.6"/>
						<path class="st0" d="M162.3,2.2h0.1c0.1,0,0.2,0,0.2-0.1s-0.1-0.1-0.2-0.1c0,0-0.1,0-0.1,0V2.2z M162.3,2.7h-0.2v-1
							c0.1,0,0.2,0,0.4,0c0.1,0,0.3,0,0.4,0.1c0.1,0.1,0.1,0.1,0.1,0.2c0,0.1-0.1,0.2-0.2,0.2l0,0c0.1,0,0.1,0.1,0.2,0.2
							c0,0.1,0,0.2,0.1,0.2h-0.2c0-0.1-0.1-0.2-0.1-0.2c0-0.1-0.1-0.1-0.2-0.1h-0.1L162.3,2.7z M161.8,2.3c-0.1,0.4,0.2,0.8,0.6,0.8
							c0.4,0.1,0.8-0.2,0.8-0.6c0,0,0,0,0,0c0-0.1,0-0.1,0-0.2c0.1-0.4-0.2-0.8-0.6-0.8c-0.4-0.1-0.8,0.2-0.8,0.6c0,0,0,0,0,0
							C161.8,2.2,161.8,2.2,161.8,2.3 M163.5,2.3c-0.1,0.5-0.5,0.9-1.1,0.9c-0.5,0-0.8-0.4-0.9-0.9c0.1-0.5,0.5-0.9,1.1-0.9
							C163.1,1.4,163.5,1.8,163.5,2.3"/>
					</g>
				</g>
			</g>
		</g>
	</g>
</g>
</svg>
