<svg id="Layer_1" xmlns="http://www.w3.org/2000/svg" width="325" height="275" viewBox="0 0 325 275"><style>.st0{fill:#d8d8d8}</style><path class="st0" d="M258.275 84.995c-3.266-1.035-8.682-1.684-10.037-2.389-.189-.111-.354-.215-.404-.312a44.202 44.202 0 0 0-2.873-4.708c-3.049-4.357-6.492-5.736-7.479-6.082-.241-.044-.5-.148-.734-.187h-.031c-.191-.05-.324-.092-.501-.136h-.019s-.12-.051-.373-.104c-.146-.044-.279-.076-.399-.124-1.101-.367-3.17-1.088-4.594-1.987-1.646-.177-6.916 1.139-7.366 2.015-.019.044-.057.07-.082.117-.051.095-.107.231-.24.393-2.189 3.262-5.67 5.786-5.695 5.786-.784.649-3.1 2.554-5.847 4.866l-8.454 6.986s-.025.012-.038.032c-11.327 9.409-18.604 12.636-22.085 13.731-2.809.687-5.721 1.224-8.391 1.62-5.531.81-9.957 1.075-9.957 1.075-5.752.26-15.102.731-23.138 1.206l-16.2.798h-.123c-3.519.167-6.053.341-7.885.531a18.62 18.62 0 0 0-1.266.136c-.095 0-.206.012-.304.012-1.114.124-1.854.218-2.263.304-.427.092-.562.124-.562.124l.025.025c-1.177.272-2.265.661-3.31 1.108-6.09 2.718-10.368 8.523-10.583 15.319 0 .104-.019.216-.019.292 0 .104-.025.215-.025.297 0 .092.044.178.025.285-2.806 12.055-13.058 28.418-29.172 29.507-.013.038-.051.038-.13.063-.661.038-1.076.202-1.282.311-.5.296-.87.816-.87 1.423 0 .475.228.887.538 1.177.047.052.123.096.189.151.02.013.02.026.057.026.181.126.453.246.772.278.241.038.55.063.946.063 12.786-.797 23.074-3.986 30.396-13.188.11 7.91-.583 15.534-10.732 20.818l.016-.05c-.266.145-.512.335-.766.468l-11.748 6.088 2.228 29.943c.028.107.202 2.013 2.3 2.013h11.29c1.075 0 1.297-.544 1.31-.867-.216-6.125-7.186-5.018-7.186-5.018s-3.93-13.352 2.104-18.554c2.345-2.031 6.597-4.366 11.141-6.759.849-.462 1.756-.93 2.642-1.38l-.013-.024c7.492-4.075 13.225-8.214 17.56-12.036 10.622-9.384 12.947-16.844 12.947-16.844s11.419-4.87 29.685 5.758l-.025-.025c0 .025.025.025.044.025l.019.006c9.869 5.753 22.183 5.575 26.764 5.246l-.518 32.196.051 3.151 1.55 5.334.569 7.828s0 1.962 2.195 1.962h9.675c1.271 0 1.373-1.038 1.373-1.291-.393-4.126-4.057-5.113-5.998-4.949V191.231c.025-1.487.106-3.157.284-5.006.569-6.878 2.208-15.921 6.322-25.374 3.403-7.804 8.517-15.89 16.099-23.293a55.76 55.76 0 0 1 .359-6.641c.589-2.996 1.576-7.135 2.443-10.498 5.385-15.285 16.623-22.511 16.623-22.511 2.102-.272 15.763-.636 16.959-1.807.322-.279.602-.674.867-1.136.025-.044.062-.102.082-.155.102-.117.152-.247.246-.377.039-.094.121-.236.185-.354.031-.085.075-.142.12-.228.057-.13.12-.272.189-.402.096-.199.197-.415.272-.583 0-.012.013-.024.019-.054.278-.614.449-1.047.449-1.047l.014-.029c.645-1.607.848-2.306 1.398-5.033.021-.461-.174-1.259-1.624-1.708"/><path class="st0" d="M231.231 8.714c9.19 0 14.375 7.761 14.742 8.33l67.931 112.046c4.548 7.504.294 15.351-.037 15.938l-67.929 112.051c-4.757 7.851-14.104 8.257-14.773 8.275H94.262c-9.192 0-14.375-7.772-14.737-8.333L11.596 144.964c-4.553-7.508-.289-15.355.038-15.933L79.559 16.986c4.756-7.847 14.099-8.253 14.77-8.272h136.902m0-9H94.262s-14.759 0-22.399 12.607L3.9 124.426s-7.644 12.602 0 25.205l67.962 112.112s7.641 12.611 22.399 12.611h136.97s14.762 0 22.404-12.611l67.966-112.112s7.637-12.604 0-25.205L253.636 12.321S245.993-.286 231.231-.286z"/></svg>